<?xml version="1.0" standalone="no"?>
<!DOCTYPE svg PUBLIC "-//W3C//DTD SVG 20010904//EN"
 "http://www.w3.org/TR/2001/REC-SVG-20010904/DTD/svg10.dtd">
<svg version="1.0" xmlns="http://www.w3.org/2000/svg"
 width="488.000000pt" height="360.000000pt" viewBox="0 0 488.000000 360.000000"
 preserveAspectRatio="xMidYMid meet">

<g transform="translate(0.000000,360.000000) scale(0.100000,-0.100000)"
fill="#000000" stroke="none">
<path d="M2318 3590 c-839 -88 -1489 -703 -1613 -1525 -19 -130 -19 -400 0
-530 41 -272 133 -512 283 -736 266 -397 665 -662 1142 -760 102 -21 142 -24
350 -24 206 0 249 3 348 23 724 147 1267 690 1414 1414 20 99 23 142 23 348 0
206 -3 249 -23 348 -150 741 -721 1294 -1468 1422 -134 23 -338 32 -456 20z
m506 -39 c685 -139 1225 -654 1386 -1325 38 -157 50 -260 50 -426 -1 -418
-135 -802 -395 -1125 -255 -318 -628 -543 -1040 -625 -154 -31 -425 -38 -588
-16 -291 41 -561 147 -797 314 -121 85 -326 289 -413 412 -135 191 -251 460
-297 696 -28 141 -37 391 -20 546 33 297 145 593 318 838 86 122 290 326 412
412 227 160 490 266 778 313 135 22 466 14 606 -14z"/>
<path d="M2360 3280 l0 -180 40 0 40 0 0 180 0 180 -40 0 -40 0 0 -180z"/>
<path d="M2585 3447 c-9 -28 -47 -339 -42 -344 8 -7 250 -41 260 -36 4 2 7 19
7 37 0 37 -3 39 -117 52 -64 7 -68 10 -57 52 5 18 12 22 33 18 14 -3 50 -8 79
-11 l52 -7 0 35 0 36 -57 6 c-85 10 -93 13 -93 41 0 34 18 38 102 26 40 -6 73
-10 74 -9 1 1 4 20 6 42 l3 40 -90 12 c-49 6 -105 14 -123 17 -21 3 -34 1 -37
-7z"/>
<path d="M2095 3413 c-60 -14 -112 -27 -114 -29 -4 -4 56 -325 63 -331 3 -3
21 -2 41 1 32 6 36 10 31 29 -3 12 -8 41 -12 64 l-6 41 58 12 c112 22 107 19
100 53 -3 16 -6 33 -6 37 0 4 -37 1 -81 -7 -45 -8 -83 -13 -84 -11 -2 2 -5 16
-7 33 -3 29 -3 29 82 49 47 10 86 20 88 21 1 1 -1 16 -4 33 -8 38 -6 38 -149
5z"/>
<path d="M2937 3208 l-66 -153 67 -32 c84 -42 125 -49 182 -34 79 21 120 78
120 168 0 76 -34 117 -135 164 -46 22 -87 39 -93 39 -5 0 -39 -69 -75 -152z
m163 47 c72 -37 92 -117 44 -174 -21 -26 -33 -31 -67 -30 -23 0 -58 8 -78 17
l-37 17 41 93 c23 52 46 92 54 92 8 0 27 -7 43 -15z"/>
<path d="M1800 3314 c-19 -8 -35 -16 -37 -17 -2 -3 121 -299 133 -318 4 -7 55
11 72 26 2 2 -125 314 -132 322 0 1 -17 -5 -36 -13z"/>
<path d="M1525 3170 c-60 -43 -111 -83 -113 -89 -5 -14 26 -51 42 -51 6 0 22
9 36 20 14 11 30 20 37 20 6 0 46 -49 88 -110 l76 -110 33 22 c19 13 32 27 28
33 -3 5 -36 56 -74 112 -37 56 -68 107 -68 112 0 5 16 19 35 31 19 12 35 27
35 33 -1 12 -35 58 -42 56 -1 0 -52 -36 -113 -79z"/>
<path d="M2250 3023 c-423 -73 -794 -375 -944 -766 -58 -151 -77 -245 -83
-412 -6 -177 9 -283 63 -445 137 -410 489 -721 926 -816 110 -24 323 -29 443
-11 519 80 930 471 1035 986 41 201 22 462 -46 653 -154 428 -530 740 -977
813 -115 19 -305 18 -417 -2z m-349 -935 l94 -253 3 253 2 253 90 -3 90 -3 0
-530 0 -530 -76 0 -77 0 -91 267 c-51 147 -94 269 -96 272 -3 2 -5 -118 -5
-267 l0 -272 -100 0 -100 0 -3 533 -2 532 88 0 89 0 94 -252z m754 233 c22
-10 48 -27 57 -37 33 -37 60 -115 65 -190 l6 -74 -92 0 -91 0 0 60 c0 51 -4
65 -25 85 -27 28 -62 32 -90 11 -13 -10 -20 -29 -23 -72 -3 -53 0 -64 28 -106
17 -26 76 -88 131 -139 112 -103 141 -145 165 -239 14 -55 15 -75 5 -129 -28
-153 -117 -230 -265 -231 -96 0 -143 16 -197 70 -54 54 -79 118 -79 202 l0 58
95 0 95 0 0 -37 c0 -87 28 -133 81 -133 45 0 59 26 59 109 l0 75 -124 123
c-159 157 -181 198 -180 328 0 97 27 192 63 228 53 53 236 75 316 38z m655
-66 l0 -84 -112 -3 -113 -3 -3 -132 -3 -133 86 0 85 0 0 -90 0 -89 -82 -3 -83
-3 -3 -223 -2 -223 -108 3 -107 3 -4 30 c-2 17 0 256 4 533 l7 502 219 0 219
0 0 -85z"/>
<path d="M3455 2920 l-120 -120 28 -27 27 -27 45 44 45 44 58 -57 c32 -31 62
-57 67 -57 5 0 19 10 32 22 l23 21 -57 64 -56 64 21 21 21 21 69 -61 69 -61
24 25 24 26 -95 89 c-52 49 -97 89 -100 89 -3 0 -59 -54 -125 -120z"/>
<path d="M1195 2875 c-41 -40 -75 -80 -74 -87 1 -7 55 -64 121 -127 l121 -113
30 31 31 31 -37 38 c-33 34 -36 40 -23 57 12 17 20 18 85 9 l71 -10 25 37 24
37 -68 7 -68 7 1 45 c1 39 -3 49 -36 79 -31 28 -45 34 -83 34 -44 0 -50 -4
-120 -75z m153 -17 c20 -20 13 -51 -24 -92 l-34 -40 -35 34 -35 34 37 38 c38
39 69 48 91 26z"/>
<path d="M3742 2668 c-43 -15 -98 -77 -112 -127 -30 -113 83 -237 197 -217 84
16 153 95 153 176 0 50 -37 118 -79 146 -43 28 -112 38 -159 22z m135 -103
c32 -32 35 -40 30 -76 -17 -126 -187 -128 -204 -2 -5 39 -2 46 30 78 27 27 43
35 72 35 29 0 45 -8 72 -35z"/>
<path d="M997 2617 c-22 -34 -97 -185 -97 -196 0 -5 71 -46 158 -89 l157 -80
62 119 63 119 -30 15 c-16 8 -33 15 -38 15 -4 0 -25 -36 -47 -79 l-38 -80 -29
15 c-15 8 -28 16 -28 19 0 2 16 33 36 69 l35 65 -31 16 c-18 9 -33 15 -35 13
-1 -2 -17 -31 -34 -65 -32 -65 -44 -73 -75 -50 -17 13 -16 17 18 85 20 39 36
74 36 76 0 5 -55 36 -63 36 -3 0 -11 -10 -20 -23z"/>
<path d="M863 2243 c-39 -54 -54 -95 -54 -141 -1 -81 30 -129 105 -163 124
-56 256 25 256 158 0 30 -7 67 -15 84 -16 29 -16 29 -48 13 -18 -9 -33 -18
-35 -19 -1 -1 4 -15 13 -31 28 -55 15 -103 -35 -129 -44 -23 -102 -19 -127 8
-51 55 -52 95 -6 156 l26 33 -30 30 -30 30 -20 -29z"/>
<path d="M3980 2234 c-41 -7 -105 -18 -142 -25 -73 -12 -77 -18 -62 -77 6 -21
11 -23 48 -17 22 4 45 8 51 9 5 0 11 -10 13 -23 3 -17 -8 -36 -43 -71 -46 -47
-46 -47 -35 -89 6 -22 13 -41 16 -41 3 0 27 23 52 51 39 43 47 48 55 34 5 -9
24 -23 43 -31 61 -26 140 11 159 74 6 19 -7 137 -22 200 -6 26 -21 27 -133 6z
m74 -90 c13 -33 6 -91 -13 -108 -26 -24 -67 -4 -75 36 -11 57 -7 76 17 81 46
9 65 7 71 -9z"/>
<path d="M1198 1002 c-76 -59 -137 -109 -138 -112 0 -3 11 -18 24 -35 l23 -29
53 47 52 47 43 -51 44 -51 -54 -47 -54 -46 26 -27 26 -28 56 47 c45 38 137
115 195 164 5 4 0 19 -11 33 l-20 25 -54 -39 -53 -40 -42 47 c-24 27 -43 50
-43 53 -1 3 21 23 49 45 27 22 49 45 49 50 0 6 -7 20 -17 32 l-17 23 -137
-108z"/>
<path d="M3535 1015 c-39 -46 -71 -88 -73 -94 -2 -5 57 -60 130 -121 l133
-111 28 33 c16 18 54 64 85 102 l56 68 -23 19 c-13 11 -26 19 -30 19 -4 0 -31
-29 -60 -65 -29 -36 -57 -65 -61 -65 -4 0 -18 8 -31 19 -26 21 -30 10 46 106
l29 37 -23 20 -24 19 -31 -38 c-17 -21 -40 -48 -51 -60 l-20 -22 -27 22 -28
23 55 65 54 66 -23 22 c-12 11 -27 21 -32 21 -6 0 -41 -38 -79 -85z"/>
<path d="M3920 1065 c0 -18 -5 -25 -20 -25 -27 0 -25 -14 5 -34 34 -23 52 -20
24 4 -20 16 -21 19 -6 20 9 0 17 7 17 15 0 13 4 14 20 5 32 -17 23 3 -10 22
-30 17 -30 17 -30 -7z"/>
<path d="M3854 999 c-25 -33 -27 -41 -7 -35 12 4 25 1 33 -9 7 -8 20 -15 29
-15 12 0 9 6 -11 23 -14 12 -28 28 -30 36 -3 11 -5 11 -14 0z"/>
<path d="M3345 805 c-22 -8 -55 -31 -74 -51 -29 -32 -33 -41 -28 -77 12 -89
68 -116 158 -78 54 24 80 26 96 10 8 -8 8 -18 1 -34 -11 -26 -39 -41 -92 -50
-33 -7 -36 -10 -36 -41 0 -38 14 -42 83 -23 96 26 142 119 95 189 -30 44 -72
50 -149 21 -67 -26 -76 -26 -89 0 -15 28 10 55 62 69 35 10 38 14 38 45 0 39
-6 41 -65 20z"/>
<path d="M1545 736 c-67 -30 -113 -114 -100 -184 17 -94 87 -147 184 -140 70
5 116 35 142 92 24 54 24 100 -2 153 -38 79 -142 115 -224 79z m147 -85 c28
-25 33 -36 33 -76 0 -40 -5 -51 -33 -76 -24 -22 -42 -29 -72 -29 -30 0 -48 7
-72 29 -28 25 -33 36 -33 76 0 40 5 51 33 76 24 22 42 29 72 29 30 0 48 -7 72
-29z"/>
<path d="M3085 626 c-19 -13 -18 -17 20 -112 53 -136 50 -175 -16 -189 -50
-11 -72 13 -119 129 -23 58 -46 106 -50 106 -5 0 -21 -5 -35 -10 -32 -12 -31
-19 35 -155 37 -76 56 -105 80 -119 87 -51 220 13 220 106 0 38 -89 258 -104
258 -7 0 -21 -6 -31 -14z"/>
<path d="M1945 568 c-27 -72 -93 -314 -87 -320 4 -3 19 -10 34 -13 26 -7 27
-5 53 82 40 137 38 136 64 50 12 -43 25 -77 29 -77 3 0 32 23 64 51 33 28 61
50 62 48 2 -2 -10 -48 -26 -102 -16 -55 -27 -101 -25 -103 2 -3 18 -8 34 -13
l30 -9 46 167 c25 91 45 166 44 167 -1 1 -18 4 -39 8 -34 6 -40 3 -96 -49 -33
-31 -62 -52 -65 -48 -2 4 -12 40 -22 80 -13 57 -21 74 -38 78 -12 4 -30 9 -40
11 -9 3 -19 -1 -22 -8z"/>
<path d="M2377 494 c-4 -4 -7 -85 -7 -181 l0 -173 130 0 130 0 0 35 0 35 -90
0 -90 0 0 35 0 35 75 0 75 0 0 35 0 35 -75 0 -75 0 0 35 0 35 86 0 85 0 -3 38
-3 37 -116 3 c-63 1 -118 -1 -122 -4z"/>
</g>
</svg>
