<?xml version="1.0" standalone="no"?>
<!DOCTYPE svg PUBLIC "-//W3C//DTD SVG 20010904//EN"
 "http://www.w3.org/TR/2001/REC-SVG-20010904/DTD/svg10.dtd">
<svg version="1.0" xmlns="http://www.w3.org/2000/svg"
 width="488.000000pt" height="360.000000pt" viewBox="0 0 488.000000 360.000000"
 preserveAspectRatio="xMidYMid meet">

<g transform="translate(0.000000,360.000000) scale(0.100000,-0.100000)"
fill="#000000" stroke="none">
<path d="M2215 3574 c-259 -32 -539 -129 -743 -256 -733 -456 -1043 -1309
-766 -2103 37 -106 135 -300 199 -395 500 -738 1465 -1012 2293 -651 317 138
606 382 795 671 273 421 354 919 227 1407 -180 691 -782 1217 -1515 1323 -127
18 -361 20 -490 4z m575 -88 c150 -32 209 -49 313 -90 356 -144 645 -383 852
-706 97 -151 184 -373 227 -575 19 -94 23 -140 23 -315 0 -237 -16 -339 -87
-545 -50 -149 -106 -261 -197 -396 -232 -346 -587 -602 -986 -713 -201 -55
-245 -61 -495 -61 -207 1 -248 3 -344 24 -372 79 -703 261 -954 525 -150 158
-259 330 -355 561 -82 195 -121 462 -105 726 44 758 648 1424 1423 1568 156
29 169 29 380 25 152 -3 213 -9 305 -28z"/>
<path d="M2245 3198 c-59 -181 -95 -296 -95 -304 0 -7 11 -9 25 -6 18 3 27 13
33 36 8 30 11 31 77 40 67 9 69 8 87 -18 21 -28 75 -38 65 -12 -9 23 -176 276
-182 276 -3 0 -7 -6 -10 -12z m59 -140 l26 -43 -28 -6 c-45 -11 -62 -10 -62 4
0 25 21 87 30 87 5 0 20 -19 34 -42z"/>
<path d="M2637 3203 c-4 -7 -44 -176 -65 -270 -2 -13 0 -23 6 -23 6 0 17 -3
25 -6 12 -4 19 14 35 81 20 85 31 110 39 90 11 -31 136 -210 145 -210 7 0 18
27 25 60 7 33 21 98 32 144 17 76 17 84 2 88 -32 8 -36 3 -53 -78 -10 -45 -20
-84 -22 -86 -10 -10 -24 9 -87 111 -61 102 -72 115 -82 99z"/>
<path d="M1820 3081 c-45 -14 -120 -53 -120 -62 0 -11 131 -269 137 -269 2 0
13 5 24 10 18 10 18 13 4 40 -21 40 -19 55 10 70 22 12 30 10 75 -14 46 -25
51 -26 77 -12 l28 15 -57 26 c-32 15 -58 28 -58 30 0 2 5 16 12 29 8 20 8 35
0 65 -18 57 -77 89 -132 72z m58 -61 c31 -29 29 -73 -4 -99 -40 -32 -57 -26
-82 24 -29 59 -28 63 11 80 43 19 50 18 75 -5z"/>
<path d="M3097 3064 c-16 -16 -5 -35 33 -59 l40 -25 -41 -68 c-23 -37 -54 -86
-70 -108 -29 -42 -28 -47 8 -67 7 -5 35 31 74 95 34 57 66 107 70 112 4 4 27
-4 52 -19 45 -26 46 -26 56 -6 10 17 1 25 -87 80 -108 67 -125 75 -135 65z"/>
<path d="M3490 2851 c0 -6 19 -21 43 -35 39 -24 43 -25 55 -9 11 15 7 19 -30
35 -49 19 -68 22 -68 9z"/>
<path d="M1450 2643 c31 -86 62 -159 67 -160 22 -8 36 25 24 59 -11 31 -10 34
37 80 46 47 49 48 81 37 27 -10 35 -9 48 4 19 19 11 33 -24 42 -16 3 -83 26
-151 51 -67 24 -127 44 -131 44 -5 0 17 -71 49 -157z m79 64 l52 -23 -35 -33
-34 -33 -21 47 c-20 46 -25 65 -17 65 2 0 27 -10 55 -23z"/>
<path d="M3365 2696 c-104 -98 -109 -105 -93 -122 16 -16 20 -14 85 44 37 33
88 81 112 106 38 38 42 47 31 61 -7 8 -15 15 -19 15 -3 0 -55 -47 -116 -104z"/>
<path d="M2265 2640 c-186 -40 -315 -110 -451 -245 -171 -169 -254 -366 -254
-599 0 -241 92 -452 271 -621 111 -104 237 -173 394 -217 115 -32 325 -32 440
0 157 44 283 113 394 217 179 169 271 380 271 621 0 233 -83 430 -254 599
-138 138 -266 206 -458 245 -119 25 -235 24 -353 0z m275 -10 c263 -32 487
-166 624 -374 104 -158 140 -274 140 -461 0 -136 -16 -218 -66 -332 -133 -305
-449 -507 -793 -507 -344 0 -660 202 -793 507 -50 114 -66 196 -66 332 0 187
36 303 140 461 133 202 361 341 609 373 99 12 111 12 205 1z"/>
<path d="M1993 2143 c7 -16 105 -225 218 -466 l204 -437 29 2 c29 3 35 14 157
273 69 149 167 357 217 463 l90 192 -86 0 -87 0 -69 -153 c-39 -83 -92 -199
-119 -257 -27 -58 -60 -129 -73 -157 -12 -29 -26 -53 -29 -53 -3 0 -19 28 -34
63 -16 34 -41 89 -56 122 -104 225 -168 365 -182 398 l-15 37 -89 0 -90 0 14
-27z"/>
<path d="M1147 2468 c-40 -53 -47 -74 -47 -131 0 -64 26 -110 80 -139 49 -27
127 -20 172 14 42 32 78 104 78 155 0 39 -2 41 -52 64 -29 13 -56 25 -60 27
-7 3 -31 -36 -55 -90 -10 -25 -10 -29 8 -38 16 -9 21 -6 36 25 17 35 35 43 62
26 10 -6 12 -19 8 -41 -16 -77 -84 -122 -152 -100 -78 26 -100 113 -46 187 24
33 26 42 16 56 -17 23 -20 22 -48 -15z"/>
<path d="M3502 2477 c-122 -9 -123 -9 -109 -31 9 -13 25 -21 43 -21 39 0 47
-7 80 -62 26 -45 27 -48 11 -76 -20 -35 -21 -51 -4 -66 11 -8 34 18 108 119
52 72 96 135 97 140 4 12 -52 11 -226 -3z m129 -54 c-6 -10 -21 -31 -34 -48
l-25 -29 -21 34 c-11 19 -21 38 -21 42 0 9 28 15 73 17 33 1 37 -1 28 -16z"/>
<path d="M3704 2138 c21 -71 37 -165 42 -250 4 -54 11 -98 16 -98 10 0 11 8 8
90 -2 64 -33 251 -45 270 -12 19 -27 10 -21 -12z"/>
<path d="M1116 1678 c18 -150 61 -309 84 -316 9 -3 11 1 6 14 -21 54 -56 212
-62 278 -5 55 -11 76 -21 76 -11 0 -12 -11 -7 -52z"/>
<path d="M1291 1160 c-50 -77 -91 -145 -91 -150 0 -13 7 -13 131 5 153 22 209
31 214 37 3 3 -3 13 -14 22 -18 16 -25 16 -125 0 -58 -10 -109 -15 -112 -11
-3 3 22 46 55 96 34 50 61 94 61 98 0 4 -7 16 -14 26 -12 16 -23 4 -105 -123z"/>
<path d="M3463 1236 c3 -8 50 -74 103 -145 93 -124 98 -129 112 -110 13 19 12
24 -8 51 l-22 29 35 57 c31 53 36 57 68 55 26 -1 38 4 48 19 7 11 11 22 9 24
-2 2 -67 8 -143 14 -77 5 -155 13 -174 16 -27 4 -33 3 -28 -10z m170 -51 l38
-6 -23 -41 -23 -40 -37 43 c-38 44 -41 60 -10 54 9 -2 34 -7 55 -10z"/>
<path d="M3286 1011 c-16 -17 -11 -23 99 -126 96 -90 118 -105 130 -95 8 7 15
16 15 20 0 8 -86 93 -181 178 -44 40 -47 41 -63 23z"/>
<path d="M1533 861 c-57 -60 -103 -113 -103 -117 0 -4 8 -13 17 -20 16 -11 29
0 113 88 52 56 99 107 103 115 8 13 -7 43 -22 43 -3 0 -52 -49 -108 -109z"/>
<path d="M3121 869 c-70 -28 -121 -97 -121 -164 0 -108 118 -182 222 -141 45
18 108 72 108 92 0 28 -33 23 -71 -10 -70 -64 -148 -54 -193 23 -36 62 8 138
94 161 31 8 37 14 33 30 -6 22 -32 25 -72 9z"/>
<path d="M1751 846 c-17 -20 -10 -29 39 -51 22 -10 40 -21 40 -24 0 -3 -29
-56 -64 -117 -63 -112 -63 -112 -40 -122 27 -13 24 -16 94 108 29 52 55 97 57
100 2 2 24 -6 49 -20 38 -20 47 -21 55 -9 5 8 7 18 6 23 -2 7 -175 107 -213
122 -6 3 -16 -2 -23 -10z"/>
<path d="M2773 683 c7 -41 77 -257 86 -266 4 -4 17 -4 28 0 19 8 18 12 -26
151 -41 131 -47 142 -69 142 -21 0 -24 -4 -19 -27z"/>
<path d="M2110 598 c-41 -51 -89 -112 -108 -135 l-34 -42 26 -7 c21 -5 31 -1
48 21 22 29 29 29 119 5 28 -8 38 -17 45 -41 10 -36 54 -61 54 -32 0 28 -62
307 -70 316 -4 5 -40 -34 -80 -85z m70 -111 c-10 -11 -80 2 -80 15 0 6 14 28
32 51 l32 40 11 -49 c6 -27 8 -53 5 -57z"/>
<path d="M2450 633 c0 -16 5 -86 12 -157 l12 -128 95 7 c53 3 98 8 102 11 4 2
5 13 2 23 -4 17 -12 19 -78 14 l-72 -6 -13 132 c-12 128 -13 131 -36 131 -19
0 -24 -5 -24 -27z"/>
</g>
</svg>
