<?xml version="1.0" standalone="no"?>
<!DOCTYPE svg PUBLIC "-//W3C//DTD SVG 20010904//EN"
 "http://www.w3.org/TR/2001/REC-SVG-20010904/DTD/svg10.dtd">
<svg version="1.0" xmlns="http://www.w3.org/2000/svg"
 width="488.000000pt" height="360.000000pt" viewBox="0 0 488.000000 360.000000"
 preserveAspectRatio="xMidYMid meet">

<g transform="translate(0.000000,360.000000) scale(0.100000,-0.100000)"
fill="#000000" stroke="none">
<path d="M2160 3574 c-568 -75 -1082 -414 -1357 -894 -162 -284 -236 -559
-236 -880 0 -168 14 -285 49 -425 204 -806 938 -1368 1789 -1368 860 0 1603
578 1794 1395 42 181 55 437 31 625 -94 730 -657 1341 -1394 1513 -208 48
-469 61 -676 34z m590 -84 c429 -91 787 -304 1039 -620 201 -250 310 -492 367
-810 25 -143 23 -401 -5 -550 -132 -701 -658 -1239 -1364 -1396 -313 -69 -661
-49 -969 57 -519 178 -926 585 -1097 1096 -64 192 -85 325 -84 538 0 203 23
347 83 525 199 590 707 1032 1325 1155 170 34 159 33 390 30 172 -2 229 -6
315 -25z"/>
<path d="M2296 3113 c7 -139 10 -155 32 -151 18 4 18 3 14 173 -2 83 -2 85
-27 85 l-25 0 6 -107z"/>
<path d="M2521 3158 c-19 -113 -24 -185 -13 -192 6 -3 40 -7 76 -8 51 -2 69 2
85 16 25 23 27 63 4 88 -16 18 -15 19 6 34 16 12 21 24 19 46 -4 41 -40 65
-109 73 l-57 7 -11 -64z m127 -3 c11 -10 11 -17 3 -34 -9 -16 -21 -21 -51 -21
-36 0 -40 3 -40 24 0 46 10 58 44 51 17 -4 37 -13 44 -20z m-20 -101 c12 -8
22 -19 22 -24 0 -18 -32 -40 -58 -40 -40 0 -50 11 -45 48 4 27 10 32 32 32 15
0 37 -7 49 -16z"/>
<path d="M2070 3190 c-14 -4 -55 -16 -92 -25 -60 -15 -66 -19 -58 -35 8 -16
15 -17 45 -9 43 12 51 8 59 -33 11 -55 47 -168 54 -168 4 0 13 4 20 8 10 7 7
27 -12 98 -13 49 -25 95 -27 103 -3 10 10 18 36 26 22 7 39 15 38 18 -2 4 -3
12 -3 17 0 12 -25 12 -60 0z"/>
<path d="M2891 3118 c-5 -13 -24 -57 -41 -98 -49 -113 -48 -116 35 -149 39
-16 74 -25 79 -21 16 16 -1 36 -40 48 -70 22 -70 20 -24 126 22 53 38 101 35
106 -11 18 -35 11 -44 -12z"/>
<path d="M1694 2927 c4 -71 10 -137 15 -149 7 -18 9 -19 23 -5 9 9 14 26 11
40 -4 21 2 28 51 53 52 26 56 27 74 11 22 -20 34 -21 49 -6 9 9 -11 29 -80 79
-51 36 -105 75 -121 85 l-29 19 7 -127z m76 21 c17 -12 30 -27 30 -33 0 -14
-48 -37 -61 -30 -9 6 -13 85 -4 85 3 0 19 -10 35 -22z"/>
<path d="M3131 2894 c-39 -53 -71 -99 -71 -103 0 -13 131 -102 140 -96 19 12
9 34 -24 54 -51 32 -60 45 -44 70 17 28 27 27 76 -9 38 -27 42 -28 51 -12 7
14 1 23 -35 47 -24 17 -44 33 -44 37 0 4 10 18 23 33 l22 25 49 -34 c48 -35
66 -38 66 -11 0 14 -107 95 -127 95 -6 0 -43 -43 -82 -96z"/>
<path d="M1382 2825 l-47 -44 92 -92 c80 -81 94 -91 108 -79 14 12 13 16 -11
41 l-27 28 32 36 c40 46 42 91 5 129 -20 19 -37 26 -66 26 -33 0 -47 -7 -86
-45z m118 -15 c26 -26 25 -43 -5 -77 l-25 -28 -34 40 c-20 22 -35 42 -36 45 0
8 53 39 68 40 6 0 21 -9 32 -20z"/>
<path d="M2225 2640 c-190 -40 -316 -110 -455 -249 -109 -110 -161 -195 -212
-341 -31 -91 -32 -102 -33 -250 0 -125 4 -168 19 -220 92 -310 314 -529 631
-621 69 -21 101 -24 235 -23 139 1 164 3 243 28 294 89 503 288 598 566 29 85
33 110 37 235 4 157 -7 223 -59 353 -153 383 -589 609 -1004 522z m375 -25
c385 -82 670 -431 670 -820 0 -400 -288 -742 -695 -826 -115 -24 -209 -24
-333 0 -187 36 -324 110 -457 245 -274 278 -320 670 -121 1010 49 83 168 208
251 263 201 134 444 179 685 128z"/>
<path d="M2287 2370 c-3 -8 -11 -58 -17 -110 -14 -125 -39 -259 -51 -282 -5
-10 -16 -18 -24 -18 -13 0 -15 -43 -14 -302 1 -315 9 -454 21 -408 4 14 16 94
28 179 22 164 39 221 64 221 14 0 16 36 15 308 -1 298 -9 443 -22 412z"/>
<path d="M2727 2355 c-3 -16 -16 -97 -28 -180 -22 -160 -39 -215 -63 -215 -14
0 -16 -33 -16 -277 0 -282 7 -443 20 -443 4 0 12 46 19 103 15 128 40 266 52
290 6 9 16 17 24 17 13 0 15 44 14 308 -1 320 -8 454 -22 397z"/>
<path d="M2501 2289 c-35 -246 -45 -294 -68 -317 l-23 -23 1 -317 c1 -432 6
-460 42 -218 31 204 39 232 69 240 20 5 20 11 16 343 -4 364 -15 448 -37 292z"/>
<path d="M2061 2249 c-34 -327 -45 -389 -71 -389 -11 0 -14 -484 -3 -570 6
-51 9 -40 34 140 23 166 30 197 48 211 21 17 21 24 20 351 0 183 -4 342 -8
352 -5 13 -12 -21 -20 -95z"/>
<path d="M2927 2340 c-9 -36 -24 -122 -38 -215 -13 -94 -32 -145 -53 -145 -14
0 -16 -35 -16 -295 0 -190 4 -295 10 -295 6 0 10 2 10 4 0 20 43 361 55 431
11 69 19 93 35 104 19 13 20 23 19 160 -2 172 -12 289 -22 251z"/>
<path d="M1888 1990 c-4 -19 -15 -90 -23 -157 -20 -161 -33 -220 -51 -227 -11
-4 -14 -34 -14 -153 0 -167 10 -177 34 -33 23 133 24 138 46 160 19 19 20 32
18 233 -2 123 -6 197 -10 177z"/>
<path d="M1180 2615 c0 -3 23 -42 51 -86 74 -119 79 -109 -55 -109 -67 0 -116
-4 -116 -10 0 -5 28 -25 63 -45 34 -20 84 -50 110 -66 27 -16 53 -27 58 -24
21 14 5 36 -48 67 l-58 33 88 3 c48 1 87 5 87 8 0 2 -19 34 -41 70 -23 36 -39
67 -36 70 2 3 31 -11 63 -30 41 -24 61 -31 66 -23 10 16 10 37 0 37 -5 0 -53
25 -108 55 -91 50 -124 64 -124 50z"/>
<path d="M3523 2546 c-60 -27 -88 -104 -62 -173 12 -33 58 -83 75 -83 26 0 25
22 -1 48 -53 53 -58 100 -16 143 22 22 39 29 68 29 51 0 78 -20 98 -75 15 -38
20 -43 36 -35 15 9 16 15 7 43 -16 44 -35 73 -64 91 -35 24 -103 29 -141 12z"/>
<path d="M3661 2212 c-52 -26 -75 -63 -75 -121 0 -109 102 -171 201 -124 96
45 97 185 1 243 -41 25 -82 25 -127 2z m133 -63 c35 -41 34 -83 -3 -120 -54
-53 -150 -30 -166 41 -13 57 36 109 102 110 34 0 46 -5 67 -31z"/>
<path d="M1001 2165 c-16 -14 -37 -46 -47 -70 -16 -42 -16 -48 0 -90 20 -52
57 -82 112 -90 106 -16 189 108 139 206 -36 69 -145 93 -204 44z m113 -25 c71
-27 89 -99 37 -151 -40 -40 -89 -40 -133 0 -26 23 -32 36 -31 65 1 39 24 73
58 87 27 11 39 11 69 -1z"/>
<path d="M3630 1785 c0 -24 2 -25 75 -25 54 0 75 -4 74 -12 0 -7 -36 -42 -79
-78 -43 -36 -79 -68 -79 -71 -1 -9 49 -17 162 -25 94 -7 97 -6 97 14 0 19 -8
21 -80 28 -44 3 -80 9 -80 13 1 3 30 29 66 56 35 28 76 62 90 77 l26 26 -89 6
c-48 4 -109 8 -135 11 -45 4 -48 3 -48 -20z"/>
<path d="M1142 1792 c-10 -7 -10 -15 -2 -36 30 -80 -7 -146 -83 -146 -70 0
-106 48 -94 125 4 27 2 34 -13 38 -22 6 -30 -11 -30 -64 0 -96 62 -155 152
-147 69 7 109 47 116 116 4 47 -12 122 -26 122 -4 0 -13 -4 -20 -8z"/>
<path d="M3691 1385 c-24 -75 -24 -108 0 -63 24 45 48 138 35 138 -6 0 -22
-34 -35 -75z"/>
<path d="M1187 1209 c-107 -54 -117 -61 -107 -79 10 -19 16 -17 130 40 66 33
120 64 120 69 0 5 -6 13 -12 19 -9 7 -46 -7 -131 -49z"/>
<path d="M3496 1254 c-9 -23 -2 -29 64 -66 33 -18 60 -36 60 -40 0 -8 -5 -10
-133 -37 -85 -19 -105 -26 -96 -35 2 -2 54 -33 114 -69 80 -47 113 -62 123
-55 21 18 14 26 -53 65 -36 20 -65 41 -65 45 0 7 28 15 130 38 116 26 116 23
-13 100 -65 39 -119 70 -121 70 -2 0 -7 -7 -10 -16z"/>
<path d="M1294 1028 c-55 -44 -98 -83 -97 -85 1 -2 6 -11 12 -20 8 -15 17 -10
70 36 34 30 64 51 67 48 4 -3 1 -56 -5 -118 -6 -62 -9 -114 -7 -117 9 -9 207
162 204 176 -5 28 -23 22 -86 -29 -35 -28 -65 -49 -67 -47 -3 2 -1 31 4 64 17
111 21 174 12 174 -5 0 -53 -37 -107 -82z"/>
<path d="M3157 940 c-11 -28 -12 -40 -4 -40 15 0 58 65 50 74 -15 15 -31 3
-46 -34z"/>
<path d="M3233 923 c-54 -30 -77 -69 -77 -130 0 -48 3 -57 36 -90 68 -68 178
-53 229 31 72 117 -66 256 -188 189z m102 -39 c40 -18 68 -72 59 -109 -8 -32
-59 -75 -89 -75 -58 0 -105 47 -105 105 0 36 16 62 48 79 35 19 47 19 87 0z"/>
<path d="M1575 752 c-39 -58 -71 -109 -73 -113 -4 -10 86 -63 131 -78 33 -11
45 -11 84 4 56 22 83 62 83 128 0 41 -4 51 -38 85 -22 20 -57 47 -78 59 l-39
21 -70 -106z m141 13 c40 -31 51 -72 30 -114 -19 -36 -44 -51 -85 -51 -34 0
-91 29 -91 48 0 21 84 142 99 142 8 0 29 -11 47 -25z"/>
<path d="M2964 736 c-7 -18 107 -236 123 -236 29 0 22 31 -33 136 -56 108 -78
132 -90 100z"/>
<path d="M1932 602 c-24 -85 -28 -133 -12 -163 15 -27 63 -49 109 -49 59 0 85
29 115 128 31 100 32 112 6 112 -15 0 -23 -12 -35 -57 -36 -128 -58 -154 -120
-139 -45 11 -52 47 -26 134 30 98 30 106 6 110 -17 2 -23 -9 -43 -76z"/>
<path d="M2752 662 c-42 -13 -91 -61 -102 -100 -24 -90 42 -172 137 -172 47 0
123 34 123 54 0 25 -15 26 -56 6 -21 -11 -50 -20 -65 -20 -35 0 -86 43 -94 79
-13 62 31 110 110 119 35 4 45 9 45 23 0 15 -7 19 -37 18 -21 -1 -48 -4 -61
-7z"/>
<path d="M2365 596 c-86 -38 -104 -151 -36 -219 26 -27 39 -32 94 -35 69 -4
110 9 101 32 -4 11 -18 13 -58 9 -68 -7 -110 13 -126 61 -9 27 -8 41 3 68 22
52 79 69 157 47 9 -2 16 4 18 17 2 17 -4 23 -29 28 -48 9 -91 7 -124 -8z"/>
</g>
</svg>
